<!-- Generator: Adobe Illustrator 22.0.0, SVG Export Plug-In  -->
<svg version="1.1"
	 xmlns="http://www.w3.org/2000/svg" xmlns:xlink="http://www.w3.org/1999/xlink" xmlns:a="http://ns.adobe.com/AdobeSVGViewerExtensions/3.0/"
	 x="0px" y="0px" width="512px" height="320px" viewBox="0 0 512 320" style="enable-background:new 0 0 512 320;"
	 xml:space="preserve">
<defs>
</defs>
<g>
	<g>
		<polygon points="448,128 448,64 416,64 416,128 352,128 352,160 416,160 416,224 448,224 448,160 512,160 512,128 		"/>
	</g>
</g>
<g>
	<g>
		<path d="M160,128v64h90.5c-13.2,37.2-48.8,64-90.5,64c-52.9,0-96-43.1-96-96s43.1-96,96-96c22.9,0,45,8.2,62.2,23.2l42-48.3
			C235.4,13.8,198.4,0,160,0C71.8,0,0,71.8,0,160s71.8,160,160,160s160-71.8,160-160v-32H160z"/>
	</g>
</g>
</svg>

